# xmcd
#
# Track frame offsets: 
#        150
#        13800
#        27962
#        41270
#        56272
#        71675
#        85132
#        98792
#        112260
#        125445
#        139830
#        152880
#        166345
#        179477
#        192255
#        221125
#        234677
#        249210
#        263785
#
# Disc length: 3714 seconds
#
# Revision: 0
# Processed by: cddbd v1.5.1PL2 Copyright (c) Steve Scherf et al.
# Submitted via: ExactAudioCopy v0.95b3
#
DISCID=0c0e8013
DTITLE=Bessie Smith - Empty Bed Blues
DYEAR=1900
DGENRE=Blues
TTITLE0=Alexander's Ragtime Band
TTITLE1=Muddy Water
TTITLE2=After You've Gone
TTITLE3=There'll Be A Hot Time In The Old Town Tonight
TTITLE4=Send Me To The 'Lectric Chair
TTITLE5=Them's Graveyard Words
TTITLE6=Sweet Mistreater
TTITLE7=Lock And Key
TTITLE8=Foolish Man Blues
TTITLE9=Thinking Blues
TTITLE10=I Used To Be Your Sweet Mama
TTITLE11=I'd Rather Be Dead And Buried In My Grave
TTITLE12=Standin' In The Rain Blues
TTITLE13=It Won't Be You
TTITLE14=Empty Bed Blues
TTITLE15=Please Help Me Get Him Off My Mind
TTITLE16=Washwoman's Blues
TTITLE17=Devil's Gonna Get You
TTITLE18=Yes Indeed He Do
EXTD=
EXTT0=
EXTT1=
EXTT2=
EXTT3=
EXTT4=
EXTT5=
EXTT6=
EXTT7=
EXTT8=
EXTT9=
EXTT10=
EXTT11=
EXTT12=
EXTT13=
EXTT14=
EXTT15=
EXTT16=
EXTT17=
EXTT18=
PLAYORDER=
